<?xml version="1.0" standalone="no"?>
<!DOCTYPE svg PUBLIC "-//W3C//DTD SVG 20010904//EN"
 "http://www.w3.org/TR/2001/REC-SVG-20010904/DTD/svg10.dtd">
<svg version="1.0" xmlns="http://www.w3.org/2000/svg"
 width="500" height="500" viewBox="0 0 500 500"
 preserveAspectRatio="xMidYMid meet">
<rect width="100%" height="100%" fill="#62c4ff"/>
<g transform="translate(0.000000,500) scale(0.100000,-0.100000)"
fill="#000000" stroke="none">
<path d="M2492 4003 l3 -138 165 -22 c91 -12 184 -24 208 -28 l43 -6 -4 -1017
c-4 -1132 -1 -1084 -72 -1230 -84 -170 -229 -251 -450 -252 -314 0 -498 185
-522 526 l-6 84 -205 0 -205 0 7 -87 c33 -446 288 -747 711 -840 38 -8 126
-17 195 -20 539 -21 897 267 959 772 7 60 11 419 11 1078 0 543 1 987 3 987 1
0 79 14 172 30 94 16 171 30 173 30 1 0 2 61 2 135 l0 135 -595 0 -596 0 3
-137z"/>
</g>
</svg>
